Patient4_TMGait_0pt4_01_left_19_EMG.mot
version=1
nRows=33
nColumns=33
inDegrees=no
endheader
time	1LAddLong	2LGlutMax	3LGlutMed	4LIliopsoas	5LSemiMemb	6LBicFemLong	7LRecFem	8LVastMed	9LVastLat	10LGasMed	11LTibAnt	12lTibPost	13LPeroneusLong	14LSol	15LExtDigLong	16LFlexDigLong	17RAddLong	18RGlutMax	19RGlutMed	20RIliopsoas	21RSemiMemb	22RBicFemLong	23RRecFem	24RVastMed	25RVastLat	26RGasMed	27RTibAnt	28RTibPost	29RPeroneusLong	30RSol	31RExtDigLong	32RFlexDigLong
24.095	0.007477	-0.037537	-0.013123	-0.010681	-0.035095	0.021667	-0.038757	-0.002441	-0.041962	-0.023804	0.077972	-0.005188	-0.00351	-0.07431	0.012512	-0.003357	0.00473	0.056763	0.005951	-0.093384	0.12131	0.099945	-0.044403	0.009155	-0.13947	0.003052	-0.088348	-0.00473	-0.77515	-0.019531	0.00061	-0.007935
24.096	-0.002441	-0.074158	-0.02243	0.001526	-0.000916	0.074768	-0.050049	0.002289	-0.024109	-0.024109	0.053406	-0.003357	-0.016174	-0.04425	0.006409	-0.000305	0.002747	-0.00412	0.1944	-0.036621	0.11932	0.071564	-0.30045	-0.027008	-0.020447	0.002747	-0.033112	-0.004425	0.034637	-0.02121	0.003357	-0.010223
24.097	-0.005951	-0.068359	-0.02533	0.010223	-0.012665	0.23239	-0.022125	-0.001831	-0.0177	-0.04425	0.038757	-0.006256	0.00412	-0.051575	0.003052	0.009918	0.001984	0.048065	0.19501	0.054626	0.072174	0.085602	-0.41519	-0.011902	0.13153	-0.00824	0.11475	-0.007935	0.63309	0.044556	0.001984	-0.007629
24.098	-0.015564	-0.002594	-0.067749	0.005798	-0.004883	0.29327	-0.036621	-0.005341	0	-0.036469	0.008392	-0.007477	0.013733	-0.050354	-0.019989	-0.008698	0.012512	0.041656	0.11292	0.074005	0.023346	-0.010376	-0.15656	-0.038605	0.12375	-0.011444	0.1535	-0.005951	-0.40802	0.045013	0.001526	-0.023041
24.099	-0.022736	0.016022	-0.074005	0.007019	-0.012054	0.28198	0.00946	0.014191	0.016174	-0.035248	0.026855	0.001831	0.02594	-0.054779	-0.040588	-0.003052	0.010376	-0.05661	0.20554	0.024261	0.009308	-0.036316	-0.08255	-0.10605	0.066986	-0.009613	0.22644	-0.008087	-0.88409	0.029602	0.001373	-0.017395
24.1	-0.02655	-0.007324	-0.037231	0.001221	-0.07782	0.20538	0.024872	0.003815	0.018463	-0.035706	0.033569	-0.001526	-0.003662	-0.058594	-0.034332	-0.000305	0.015564	-0.016479	0.007019	-0.016632	-0.010681	-0.05127	-0.0737	-0.053864	0.023499	-0.006409	0.30426	-0.006256	-0.040283	-0.008545	0.002899	-0.016022
24.101	-0.025482	0.002747	-0.008087	-0.010681	-0.11292	0.07843	0.059967	0.011597	0.076599	-0.034485	0.095673	-0.00412	-0.018616	-0.05127	-0.026703	0.00061	0.014038	-0.02655	-0.002289	-0.046082	-0.004578	-0.048065	-0.019226	0.074768	0.11169	-0.007172	0.4541	-0.001678	0.62729	-0.10132	0.000305	-0.00351
24.102	-0.013275	-0.023956	-0.001068	0.002289	0.025024	-0.12604	0.064087	0.004578	0.10651	-0.023956	0.10315	-0.011139	-0.024109	-0.054321	0.016632	-0.002899	0.032349	-0.02182	-0.011902	-0.037384	-0.049286	0.013428	0.023193	0.09903	0.13168	-0.005646	0.70755	-0.003204	0.41992	-0.26627	0.002594	-0.007629
24.103	0.015259	-0.059357	0.013123	0.002899	0.12421	-0.31143	-0.016937	-0.007324	0.064392	-0.023804	0.088348	0.000153	-0.037231	-0.054932	0.072174	-0.00412	0.017548	-0.077972	-0.10696	0.092773	-0.23117	0.089111	0.031128	0.077667	0.050354	-0.001831	0.33035	-0.002899	0.32806	-0.20798	0.010834	-0.013123
24.104	0.031281	-0.052032	0.020599	0.003662	0.1355	-0.2533	-0.02594	-0.010071	0.047455	0.004425	-0.041656	-0.000153	0.038757	-0.046997	-0.011902	0.012207	0.018005	-0.055847	0.067902	0.11978	-0.31235	0.075073	0.059357	-0.005951	0.010834	-0.001831	0.077515	-0.003357	0.60806	-0.16541	0.003357	-0.019379
24.105	0.017242	-0.057068	0.034637	0.007935	0.061646	-0.24063	-0.024872	-0.003052	0.018616	-0.091858	-0.13168	-0.006866	0.1329	-0.036163	-0.053101	0.004883	0.014496	-0.01236	0.06485	0.10284	-0.2269	-0.002747	0.080566	0.034485	0.001221	-0.005035	0.33234	-0.002136	0.42297	-0.09903	0.00412	-0.014496
24.106	-0.001831	-0.06485	0.023956	-0.00473	-0.013733	-0.12177	-0.006561	-0.006104	0.014038	-0.068665	-0.075531	-0.000305	0.099182	-0.059967	-0.020905	-0.009918	0.010986	-0.038605	0.06012	0.022125	0.23102	-0.063324	0.029144	-0.014191	-0.014038	-0.000153	-0.47012	-0.005188	0.3363	-0.030518	0.00473	-0.011749
24.107	-0.006714	-0.053864	-0.007172	0.014954	-0.023651	-0.057983	0.000458	0.001373	0.027313	-0.044403	0.029602	-0.001678	0.010681	-0.083618	0.005646	0.000305	0.036621	-0.075378	0.028381	0.024261	0.12604	-0.11475	0.07431	-0.066986	-0.019073	0.001678	-0.43488	-0.005188	-0.23987	-0.074005	0	-0.013885
24.108	0.001526	-0.075836	-0.016479	0.004578	0.000916	-0.14908	-0.013428	0.003052	0.036621	-0.031128	0.077515	-0.00412	0.002441	-0.11078	0.057526	0.008087	0.040741	-0.09201	-0.011902	0.015259	-0.057831	-0.12863	0.12665	-0.097351	0.008698	0.010223	-0.35416	-0.002747	0.26169	-0.21439	-0.001526	-0.006866
24.109	0.009918	-0.079041	-0.030518	-0.005341	0.022736	-0.21408	-0.003967	0.006714	0.048828	-0.023193	0.027618	0.006866	0.021515	-0.09552	0.050659	0.010986	0.00885	-0.070496	-0.09964	0.003662	-0.15366	0.002594	0.1004	-0.025787	0.023499	-0.007935	-0.54108	-0.011902	-0.21057	-0.16876	0	-0.003662
24.11	0.004883	-0.088043	-0.033417	-0.005646	0.065308	-0.16403	0.013275	0.001068	0.02243	-0.008545	0.001831	0.004883	0.055542	-0.10956	0.072937	0.010071	0.016632	-0.044708	-0.076447	-0.005798	-0.061951	0.072174	0.11368	0.006866	0.023499	-0.014343	-0.089264	-0.005188	-0.6694	-0.024414	-0.001221	-0.01236
24.111	-0.010529	-0.075378	-0.04425	-0.013733	0.047302	-0.033875	0.029144	0.000153	0.00351	-0.005951	-0.016937	0.00473	0.035095	-0.048981	0.06134	0.004883	-0.018005	-0.068665	0.17197	0.007935	0.048218	0.091705	0.12833	0.10819	0.027618	-0.009155	-0.22095	-0.009613	-0.22614	0.06073	0.002136	-0.00946
24.112	-0.010376	-0.11597	-0.055084	-0.008392	0.014496	0.062714	0.067291	-0.002594	-0.021362	-0.013733	-0.027161	0.011902	0.041962	0.008087	-0.026245	-0.008087	-0.014801	-0.084534	0.04837	0.017853	0.055084	0.13473	0.10819	0.089264	0.029755	-0.003815	-0.4773	-0.00885	0.47531	0.18509	-0.001221	-0.001831
24.113	0.000458	-0.089569	-0.049591	-0.002289	-0.018311	0.075073	0.06485	-0.011597	-0.077209	-0.010834	0.014801	0.008698	0.027466	-0.036621	-0.06897	0.005646	-0.003052	-0.09079	0.007629	-0.024109	0.12238	0.066223	0.10696	0.10025	0.010529	0.002441	-0.57678	-0.006256	0.7579	0.055542	0.005035	-0.001678
24.114	0.005493	-0.049286	-0.041504	-0.012207	0.025635	0.036774	0.033112	-0.014343	-0.10223	0.000763	0.003815	0.005341	0.006409	-0.048065	-0.085449	-0.003662	-0.012054	-0.055084	0.16937	-0.039368	0.10727	0.030212	0.048523	0.073547	0.023499	0.011749	-0.53162	-0.003662	-0.61295	0.066986	0.000763	0.005341
24.115	-0.00061	-0.079346	-0.036011	0.007477	0.0177	0.027771	-0.002594	-0.015717	-0.094757	-0.001984	-0.02655	0.005646	0.012054	-0.059967	-0.067291	0.009766	-0.019531	-0.11963	-0.027161	-0.037231	0.009308	0.064697	-0.009613	0.015106	0.037079	0.012665	-0.44739	-0.001678	-0.10941	0.090637	0.001373	-0.002289
24.116	-0.000305	-0.12604	-0.022278	0.006866	-0.035858	0.059357	-0.045929	-0.007935	-0.088806	-0.004425	-0.02655	0.006561	0.031586	-0.046082	-0.072174	0.005951	-0.010986	-0.094452	-0.037384	-0.058441	-0.030518	0.035553	0.036621	-0.045319	0.038452	0.009155	-0.098572	-0.003967	-0.15686	0.13519	0.000763	-0.003357
24.117	0.003662	-0.12817	-0.023804	-0.002441	-0.067139	0.080109	-0.084381	-0.007935	-0.075836	-0.011597	-0.01709	0.009003	0.041351	-0.073853	-0.082703	0.012207	0.002441	-0.12344	0.030212	-0.011749	-0.039825	0.019989	0.065613	-0.1564	0.016632	0	0.13046	-0.003357	-0.017242	0.014038	0.001678	-0.00824
24.118	-0.002136	-0.083466	-0.001526	-0.001221	-0.043793	0.089722	-0.11383	-0.00946	-0.045166	-0.020752	-0.035248	0.007629	0.034332	-0.10193	-0.02655	0.018616	0.016327	-0.13275	0.15442	0.050964	-0.025635	-0.033569	0.032959	-0.071869	-0.013428	-0.001526	0.29907	-0.006409	-0.1265	0.063324	0.002747	-0.014191
24.119	-0.003052	-0.056305	0.006714	0.002441	-0.034485	0.058136	-0.1152	-0.002594	-0.008087	-0.014038	-0.033264	0.004425	0.036774	-0.10819	0.005188	0.010529	0.007629	-0.090942	0.18356	0.079041	0.000916	0.027161	0.018158	0.007782	-0.006104	-0.005646	0.25284	-0.003662	-0.27252	0.10742	-0.000305	-0.01709
24.12	-0.01297	-0.089264	0.039978	0.012054	-0.016937	0.037384	-0.13779	-0.000458	0.048828	-0.017548	-0.011444	0.007019	0.033112	-0.10437	0.015259	0.006561	0.000916	-0.069733	0.16449	0.070648	0.096283	0.076599	0.037537	0.056305	-0.00946	-0.003967	0.20798	-0.003052	-0.14755	0.041656	0.000153	-0.011444
24.121	-0.024261	-0.059052	0.028229	0.011139	0.028687	0.065155	-0.099335	-0.004578	0.103	-0.01236	-0.007477	0.009918	0.033264	-0.096436	-0.007629	0.001526	-0.011292	-0.077972	0.10605	0.017853	-0.01709	0.12466	0.015869	0.067902	0.00824	-0.007935	0.088196	-0.003052	0.10773	0.026703	-0.002747	-0.019073
24.122	-0.029297	0.00412	0.003204	0.00824	0.049744	0.12039	-0.041351	0.003815	0.09079	-0.015106	0.012054	0.014648	0.027008	-0.070648	0.010071	0.008087	0	-0.067444	0.009155	-0.026703	-0.019989	0.10223	0.053711	0.00885	-0.008545	-0.018005	0.085754	-0.003357	0.1236	0.057373	-0.001831	-0.017853
24.123	-0.042267	0.0177	-0.016479	-0.009918	0.027008	0.099335	-0.010223	-0.028534	0.11047	-0.007324	0.010071	0.003815	0.046387	-0.085297	0.007324	0.010681	0.007019	-0.121	-0.29098	0.007477	0.055389	0.069885	0.033264	-0.009613	-0.007935	-0.020905	0.057373	-0.005951	-0.034637	0.11673	-0.00061	-0.021667
24.124	-0.025635	0.04776	-0.028534	0.006104	-0.041656	0.16083	-0.002594	-0.014954	0.077667	-0.021057	-0.028381	0.010834	0.050507	-0.053711	0.001526	-0.005188	0.008087	-0.09903	-0.050201	0.003204	0.053253	0.064545	0.034485	0.015259	-0.00473	-0.020599	-0.014648	-0.002899	-0.11047	0.06897	-0.000305	-0.015259
24.125	-0.023193	0.031128	-0.025787	-0.003815	-0.082092	0.16327	-0.023651	-0.012665	0.038452	-0.000916	-0.029449	0.007782	0.040131	-0.07019	-0.013275	0.004425	0.019989	-0.041962	0.22614	-0.052185	0.02243	0.060272	0.020447	0.003052	-0.036316	-0.0177	-0.029602	-0.001526	-0.15686	0.069885	-0.00061	-0.014038
24.126	-0.001678	0.022125	0.028381	0.006714	0.024414	0.14542	-0.031586	-0.010071	-0.009766	-0.016937	-0.060272	0.008392	0.033417	-0.052948	0.062256	0.003662	0.021515	-0.022888	-0.11261	-0.010681	-0.024872	0.030212	0.042725	-0.062408	-0.056152	-0.014954	0.053711	-0.005341	-0.16266	0.14435	0.001221	-0.00473
24.127	0.02533	-0.018921	-0.019226	-0.005188	0.091705	0.18982	-0.072784	-0.008087	-0.020142	-0.022583	-0.032806	0.00946	0.027161	-0.046234	0.06134	-0.007324	0.015869	-0.027771	-0.070496	-0.037994	-0.053101	0.012512	0.076141	0.002899	-0.11169	-0.013123	0.26382	-0.002289	0.066681	0.1889	0.001831	-0.00885
